HIERARCHY
ROOT Hips
{
	OFFSET 0.000000 0.000000 0.000000
	CHANNELS 6 Xposition Yposition Zposition Xrotation Yrotation Zrotation
	JOINT LeftUpLeg_virtual
	{
		OFFSET 0.000000 0.000000 0.000000
		CHANNELS 3 Xrotation Yrotation Zrotation
		JOINT LeftUpLeg
		{
			OFFSET 15.427100 -6.655098 0.678600
			CHANNELS 3 Xrotation Yrotation Zrotation
			JOINT LeftLeg
			{
				OFFSET 4.081073 -39.591068 13.024000
				CHANNELS 3 Xrotation Yrotation Zrotation
				JOINT LeftFoot
				{
					OFFSET -4.081074 -37.707932 -15.979700
					CHANNELS 3 Xrotation Yrotation Zrotation
					JOINT LeftToeBase
					{
						OFFSET 5.346399 -15.068900 20.645000
						CHANNELS 3 Xrotation Yrotation Zrotation
						JOINT LeftToe_End
						{
							OFFSET 2.754700 0.931300 11.300900
							CHANNELS 3 Xrotation Yrotation Zrotation
							End Site
							{
								OFFSET 0 0 0
							}
						}
					}
				}
			}
		}
	}
	JOINT RightUpLeg_virtual
	{
		OFFSET 0.000000 0.000000 0.000000
		CHANNELS 3 Xrotation Yrotation Zrotation
		JOINT RightUpLeg
		{
			OFFSET -15.569500 -6.655098 0.678600
			CHANNELS 3 Xrotation Yrotation Zrotation
			JOINT RightLeg
			{
				OFFSET -4.081825 -39.591045 13.023800
				CHANNELS 3 Xrotation Yrotation Zrotation
				JOINT RightFoot
				{
					OFFSET 4.081824 -37.707954 -15.979600
					CHANNELS 3 Xrotation Yrotation Zrotation
					JOINT RightToeBase
					{
						OFFSET -5.346400 -15.068900 20.645000
						CHANNELS 3 Xrotation Yrotation Zrotation
						JOINT RightToe_End
						{
							OFFSET -2.754700 0.931300 11.300900
							CHANNELS 3 Xrotation Yrotation Zrotation
							End Site
							{
								OFFSET 0 0 0
							}
						}
					}
				}
			}
		}
	}
	JOINT Spine_virtual
	{
		OFFSET 0.000000 0.000000 0.000000
		CHANNELS 3 Xrotation Yrotation Zrotation
		JOINT Spine
		{
			OFFSET -0.279200 12.230698 -2.892100
			CHANNELS 3 Xrotation Yrotation Zrotation
			JOINT Spine1
			{
				OFFSET -0.232667 10.192268 -1.242267
				CHANNELS 3 Xrotation Yrotation Zrotation
				JOINT Spine1_split
				{
					OFFSET -0.232667 10.192268 -1.242267
					CHANNELS 3 Xrotation Yrotation Zrotation
					JOINT Spine2
					{
						OFFSET -0.232667 10.192268 -1.242267
						CHANNELS 3 Xrotation Yrotation Zrotation
						JOINT Neck_virtual
						{
							OFFSET 0.000000 0.000000 0.000000
							CHANNELS 3 Xrotation Yrotation Zrotation
							JOINT Neck
							{
								OFFSET -0.418800 17.814194 8.416900
								CHANNELS 3 Xrotation Yrotation Zrotation
								JOINT Head
								{
									OFFSET 0.000000 7.031097 3.806800
									CHANNELS 3 Xrotation Yrotation Zrotation
									JOINT HeadTop_End
									{
										OFFSET 0.000000 24.646606 12.978600
										CHANNELS 3 Xrotation Yrotation Zrotation
										End Site
										{
											OFFSET 0 0 0
										}
									}
								}
							}
						}
						JOINT LeftShoulder_virtual
						{
							OFFSET 0.000000 0.000000 0.000000
							CHANNELS 3 Xrotation Yrotation Zrotation
							JOINT LeftShoulder
							{
								OFFSET 8.476499 7.247704 -3.868750
								CHANNELS 3 Xrotation Yrotation Zrotation
								JOINT LeftShoulder_split
								{
									OFFSET 8.476499 7.247704 -3.868750
									CHANNELS 3 Xrotation Yrotation Zrotation
									JOINT LeftArm
									{
										OFFSET 9.308998 -2.777710 0.208600
										CHANNELS 3 Xrotation Yrotation Zrotation
										JOINT LeftForeArm
										{
											OFFSET 29.972298 0.000000 0.000000
											CHANNELS 3 Xrotation Yrotation Zrotation
											JOINT LeftHand
											{
												OFFSET 26.026505 0.000000 0.000000
												CHANNELS 3 Xrotation Yrotation Zrotation
												End Site
												{
													OFFSET 0 0 0
												}
											}
										}
									}
								}
							}
						}
						JOINT RightShoulder_virtual
						{
							OFFSET 0.000000 0.000000 0.000000
							CHANNELS 3 Xrotation Yrotation Zrotation
							JOINT RightShoulder
							{
								OFFSET -7.570500 7.247704 -3.868750
								CHANNELS 3 Xrotation Yrotation Zrotation
								JOINT RightShoulder_split
								{
									OFFSET -7.570500 7.247704 -3.868750
									CHANNELS 3 Xrotation Yrotation Zrotation
									JOINT RightArm
									{
										OFFSET -9.308998 -2.777710 0.208500
										CHANNELS 3 Xrotation Yrotation Zrotation
										JOINT RightForeArm
										{
											OFFSET -29.972300 0.000000 0.000000
											CHANNELS 3 Xrotation Yrotation Zrotation
											JOINT RightHand
											{
												OFFSET -26.026505 0.000000 0.000000
												CHANNELS 3 Xrotation Yrotation Zrotation
												End Site
												{
													OFFSET 0 0 0
												}
											}
										}
									}
								}
							}
						}
					}
				}
			}
		}
	}
}
MOTION
Frames: 11
Frame Time: 0.03333333
49.544758 67.508621 233.744507 0.000000 0.000000 0.000000 2.750626 28.450622 -14.714517 -4.338250 6.927259 -3.275203 90.626495 5.778974 -1.039253 2.134577 2.360098 18.518969 2.678223 -0.000002 0.000003 0.000000 0.000000 0.000000 2.750626 28.450622 -14.714517 -57.453523 4.383405 -1.504461 50.405092 4.117453 -2.038657 0.989712 3.528391 20.175880 -3.222710 0.000010 0.000001 0.000000 0.000000 0.000000 2.750626 28.450622 -14.714517 2.428725 -9.103484 -1.334434 2.171916 -3.807845 1.397091 0.000000 0.000000 0.000000 0.000000 0.000000 0.000000 2.111295 -3.874995 1.334499 2.146345 3.276995 0.282033 -11.327449 36.663752 5.753504 0.000000 0.000000 0.000000 2.111295 -3.874995 1.334499 0.543621 -1.205992 -9.510704 0.000000 0.000000 0.000000 18.985860 -16.238959 -51.504172 0.000175 -80.003338 0.000170 0.000000 0.000000 0.000000 2.111295 -3.874995 1.334499 0.640669 -6.488262 9.965685 0.000000 0.000000 0.000000 34.769802 13.168149 44.617760 179.999868 84.495546 -179.999882 0.000000 0.000000 0.000000 
56.556732 66.030022 247.492432 0.000000 0.000000 0.000000 1.299025 28.594826 -15.894180 -30.515591 8.698055 2.191597 103.509188 6.672654 -0.990976 -0.337037 0.195851 17.717383 -7.194465 -0.385502 3.183612 0.000000 0.000000 0.000000 1.299025 28.594826 -15.894180 -47.320462 3.162587 0.645829 62.602461 6.163234 -1.147618 -19.706125 0.066992 15.299660 -4.331977 0.000004 0.000004 0.000000 0.000000 0.000000 1.299025 28.594826 -15.894180 4.446918 -3.237982 -0.588930 3.685482 -1.693000 1.426697 0.000000 0.000000 0.000000 0.000000 0.000000 0.000000 3.657013 -1.820092 1.396210 0.856919 2.472381 0.809330 -13.888076 30.928575 5.475026 0.000000 0.000000 0.000000 3.657013 -1.820092 1.396210 0.537710 -0.925229 -8.721438 0.000000 0.000000 0.000000 28.704785 -17.140802 -55.244356 0.000033 -63.812033 0.000049 0.000000 0.000000 0.000000 3.657013 -1.820092 1.396210 0.815846 -4.239265 12.335988 0.000000 0.000000 0.000000 15.586531 20.224412 47.923319 -179.999185 87.388282 179.999021 0.000000 0.000000 0.000000 
65.533287 65.317558 261.722076 0.000000 0.000000 0.000000 -0.089111 28.217993 -16.631224 -61.969111 8.342627 7.782936 103.513231 8.604866 -0.655594 8.036759 -0.715435 18.659409 -30.309402 -2.790963 5.045293 0.000000 0.000000 0.000000 -0.089111 28.217993 -16.631224 -28.489836 1.887144 0.858735 65.041528 8.752894 0.404190 -38.793839 0.007165 7.480750 -5.746955 -0.000002 -0.000003 0.000000 0.000000 0.000000 -0.089111 28.217993 -16.631224 5.587213 1.465570 0.536634 4.651097 0.654911 1.633858 0.000000 0.000000 0.000000 0.000000 0.000000 0.000000 4.657232 0.491970 1.673786 0.396500 1.761077 0.948530 -15.762634 26.254656 5.119160 0.000000 0.000000 0.000000 4.657232 0.491970 1.673786 0.472290 0.823564 -6.563496 0.000000 0.000000 0.000000 41.287052 -17.715629 -58.148693 0.000010 -58.979831 0.000009 0.000000 0.000000 0.000000 4.657232 0.491970 1.673786 0.625962 0.265413 11.021708 0.000000 0.000000 0.000000 -6.297812 23.802318 54.826902 179.999882 83.353060 -179.999896 0.000000 0.000000 0.000000 
65.533287 65.317558 261.722076 0.000000 0.000000 0.000000 -0.089111 28.217993 -16.631224 -61.969111 8.342627 7.782936 103.513231 8.604866 -0.655594 8.036759 -0.715435 18.659409 -30.309402 -2.790963 5.045293 0.000000 0.000000 0.000000 -0.089111 28.217993 -16.631224 -28.489836 1.887144 0.858735 65.041528 8.752894 0.404190 -38.793839 0.007165 7.480750 -5.746955 -0.000002 -0.000003 0.000000 0.000000 0.000000 -0.089111 28.217993 -16.631224 5.587213 1.465570 0.536634 4.651097 0.654911 1.633858 0.000000 0.000000 0.000000 0.000000 0.000000 0.000000 4.657232 0.491970 1.673786 0.396500 1.761077 0.948530 -15.762634 26.254656 5.119160 0.000000 0.000000 0.000000 4.657232 0.491970 1.673786 0.472290 0.823564 -6.563496 0.000000 0.000000 0.000000 41.287052 -17.715629 -58.148693 0.000010 -58.979831 0.000009 0.000000 0.000000 0.000000 4.657232 0.491970 1.673786 0.625962 0.265413 11.021708 0.000000 0.000000 0.000000 -6.297812 23.802318 54.826902 179.999882 83.353060 -179.999896 0.000000 0.000000 0.000000 
65.533287 65.317558 261.722076 0.000000 0.000000 0.000000 -0.089111 28.217993 -16.631224 -61.969111 8.342627 7.782936 103.513231 8.604866 -0.655594 8.036759 -0.715435 18.659409 -30.309402 -2.790963 5.045293 0.000000 0.000000 0.000000 -0.089111 28.217993 -16.631224 -28.489836 1.887144 0.858735 65.041528 8.752894 0.404190 -38.793839 0.007165 7.480750 -5.746955 -0.000002 -0.000003 0.000000 0.000000 0.000000 -0.089111 28.217993 -16.631224 5.587213 1.465570 0.536634 4.651097 0.654911 1.633858 0.000000 0.000000 0.000000 0.000000 0.000000 0.000000 4.657232 0.491970 1.673786 0.396500 1.761077 0.948530 -15.762634 26.254656 5.119160 0.000000 0.000000 0.000000 4.657232 0.491970 1.673786 0.472290 0.823564 -6.563496 0.000000 0.000000 0.000000 41.287052 -17.715629 -58.148693 0.000010 -58.979831 0.000009 0.000000 0.000000 0.000000 4.657232 0.491970 1.673786 0.625962 0.265413 11.021708 0.000000 0.000000 0.000000 -6.297812 23.802318 54.826902 179.999882 83.353060 -179.999896 0.000000 0.000000 0.000000 
65.533287 65.317558 261.722076 0.000000 0.000000 0.000000 -0.089111 28.217993 -16.631224 -61.969111 8.342627 7.782936 103.513231 8.604866 -0.655594 8.036759 -0.715435 18.659409 -30.309402 -2.790963 5.045293 0.000000 0.000000 0.000000 -0.089111 28.217993 -16.631224 -28.489836 1.887144 0.858735 65.041528 8.752894 0.404190 -38.793839 0.007165 7.480750 -5.746955 -0.000002 -0.000003 0.000000 0.000000 0.000000 -0.089111 28.217993 -16.631224 5.587213 1.465570 0.536634 4.651097 0.654911 1.633858 0.000000 0.000000 0.000000 0.000000 0.000000 0.000000 4.657232 0.491970 1.673786 0.396500 1.761077 0.948530 -15.762634 26.254656 5.119160 0.000000 0.000000 0.000000 4.657232 0.491970 1.673786 0.472290 0.823564 -6.563496 0.000000 0.000000 0.000000 41.287052 -17.715629 -58.148693 0.000010 -58.979831 0.000009 0.000000 0.000000 0.000000 4.657232 0.491970 1.673786 0.625962 0.265413 11.021708 0.000000 0.000000 0.000000 -6.297812 23.802318 54.826902 179.999882 83.353060 -179.999896 0.000000 0.000000 0.000000 
65.533287 65.317558 261.722076 0.000000 0.000000 0.000000 -0.089111 28.217993 -16.631224 -61.969111 8.342627 7.782936 103.513231 8.604866 -0.655594 8.036759 -0.715435 18.659409 -30.309402 -2.790963 5.045293 0.000000 0.000000 0.000000 -0.089111 28.217993 -16.631224 -28.489836 1.887144 0.858735 65.041528 8.752894 0.404190 -38.793839 0.007165 7.480750 -5.746955 -0.000002 -0.000003 0.000000 0.000000 0.000000 -0.089111 28.217993 -16.631224 5.587213 1.465570 0.536634 4.651097 0.654911 1.633858 0.000000 0.000000 0.000000 0.000000 0.000000 0.000000 4.657232 0.491970 1.673786 0.396500 1.761077 0.948530 -15.762634 26.254656 5.119160 0.000000 0.000000 0.000000 4.657232 0.491970 1.673786 0.472290 0.823564 -6.563496 0.000000 0.000000 0.000000 41.287052 -17.715629 -58.148693 0.000010 -58.979831 0.000009 0.000000 0.000000 0.000000 4.657232 0.491970 1.673786 0.625962 0.265413 11.021708 0.000000 0.000000 0.000000 -6.297812 23.802318 54.826902 179.999882 83.353060 -179.999896 0.000000 0.000000 0.000000 
65.533287 65.317558 261.722076 0.000000 0.000000 0.000000 -0.089111 28.217993 -16.631224 -61.969111 8.342627 7.782936 103.513231 8.604866 -0.655594 8.036759 -0.715435 18.659409 -30.309402 -2.790963 5.045293 0.000000 0.000000 0.000000 -0.089111 28.217993 -16.631224 -28.489836 1.887144 0.858735 65.041528 8.752894 0.404190 -38.793839 0.007165 7.480750 -5.746955 -0.000002 -0.000003 0.000000 0.000000 0.000000 -0.089111 28.217993 -16.631224 5.587213 1.465570 0.536634 4.651097 0.654911 1.633858 0.000000 0.000000 0.000000 0.000000 0.000000 0.000000 4.657232 0.491970 1.673786 0.396500 1.761077 0.948530 -15.762634 26.254656 5.119160 0.000000 0.000000 0.000000 4.657232 0.491970 1.673786 0.472290 0.823564 -6.563496 0.000000 0.000000 0.000000 41.287052 -17.715629 -58.148693 0.000010 -58.979831 0.000009 0.000000 0.000000 0.000000 4.657232 0.491970 1.673786 0.625962 0.265413 11.021708 0.000000 0.000000 0.000000 -6.297812 23.802318 54.826902 179.999882 83.353060 -179.999896 0.000000 0.000000 0.000000 
65.533287 65.317558 261.722076 0.000000 0.000000 0.000000 -0.089111 28.217993 -16.631224 -61.969111 8.342627 7.782936 103.513231 8.604866 -0.655594 8.036759 -0.715435 18.659409 -30.309402 -2.790963 5.045293 0.000000 0.000000 0.000000 -0.089111 28.217993 -16.631224 -28.489836 1.887144 0.858735 65.041528 8.752894 0.404190 -38.793839 0.007165 7.480750 -5.746955 -0.000002 -0.000003 0.000000 0.000000 0.000000 -0.089111 28.217993 -16.631224 5.587213 1.465570 0.536634 4.651097 0.654911 1.633858 0.000000 0.000000 0.000000 0.000000 0.000000 0.000000 4.657232 0.491970 1.673786 0.396500 1.761077 0.948530 -15.762634 26.254656 5.119160 0.000000 0.000000 0.000000 4.657232 0.491970 1.673786 0.472290 0.823564 -6.563496 0.000000 0.000000 0.000000 41.287052 -17.715629 -58.148693 0.000010 -58.979831 0.000009 0.000000 0.000000 0.000000 4.657232 0.491970 1.673786 0.625962 0.265413 11.021708 0.000000 0.000000 0.000000 -6.297812 23.802318 54.826902 179.999882 83.353060 -179.999896 0.000000 0.000000 0.000000 
65.533287 65.317558 261.722076 0.000000 0.000000 0.000000 -0.089111 28.217993 -16.631224 -61.969111 8.342627 7.782936 103.513231 8.604866 -0.655594 8.036759 -0.715435 18.659409 -30.309402 -2.790963 5.045293 0.000000 0.000000 0.000000 -0.089111 28.217993 -16.631224 -28.489836 1.887144 0.858735 65.041528 8.752894 0.404190 -38.793839 0.007165 7.480750 -5.746955 -0.000002 -0.000003 0.000000 0.000000 0.000000 -0.089111 28.217993 -16.631224 5.587213 1.465570 0.536634 4.651097 0.654911 1.633858 0.000000 0.000000 0.000000 0.000000 0.000000 0.000000 4.657232 0.491970 1.673786 0.396500 1.761077 0.948530 -15.762634 26.254656 5.119160 0.000000 0.000000 0.000000 4.657232 0.491970 1.673786 0.472290 0.823564 -6.563496 0.000000 0.000000 0.000000 41.287052 -17.715629 -58.148693 0.000010 -58.979831 0.000009 0.000000 0.000000 0.000000 4.657232 0.491970 1.673786 0.625962 0.265413 11.021708 0.000000 0.000000 0.000000 -6.297812 23.802318 54.826902 179.999882 83.353060 -179.999896 0.000000 0.000000 0.000000 
65.533287 65.317558 261.722076 0.000000 0.000000 0.000000 -0.089111 28.217993 -16.631224 -61.969111 8.342627 7.782936 103.513231 8.604866 -0.655594 8.036759 -0.715435 18.659409 -30.309402 -2.790963 5.045293 0.000000 0.000000 0.000000 -0.089111 28.217993 -16.631224 -28.489836 1.887144 0.858735 65.041528 8.752894 0.404190 -38.793839 0.007165 7.480750 -5.746955 -0.000002 -0.000003 0.000000 0.000000 0.000000 -0.089111 28.217993 -16.631224 5.587213 1.465570 0.536634 4.651097 0.654911 1.633858 0.000000 0.000000 0.000000 0.000000 0.000000 0.000000 4.657232 0.491970 1.673786 0.396500 1.761077 0.948530 -15.762634 26.254656 5.119160 0.000000 0.000000 0.000000 4.657232 0.491970 1.673786 0.472290 0.823564 -6.563496 0.000000 0.000000 0.000000 41.287052 -17.715629 -58.148693 0.000010 -58.979831 0.000009 0.000000 0.000000 0.000000 4.657232 0.491970 1.673786 0.625962 0.265413 11.021708 0.000000 0.000000 0.000000 -6.297812 23.802318 54.826902 179.999882 83.353060 -179.999896 0.000000 0.000000 0.000000 
